# xmcd
#
# Track frame offsets:
#	150
#	25526
#	44108
#	63079
#	83799
#	103772
#	131324
#	160889
#	190496
#	210334
#	232173
#	259598
#
# Disc length: 3799 seconds
#
# Revision: 1
# Processed by: cddbd v1.5.2PL0 Copyright (c) Steve Scherf et al.
# Submitted via: audiograbber 1.83.01
#
DISCID=9d0ed50c
DTITLE=Larry McCray - Larry McCray
DYEAR=2007
DGENRE=Blues
TTITLE0=Run
TTITLE1=Get My Blue's on
TTITLE2=Don't need no woman
TTITLE3=Broken promise
TTITLE4=Big black hole
TTITLE5=No more
TTITLE6=Somebody watching
TTITLE7=Buck naked
TTITLE8=You are the one
TTITLE9=Never hurt so bad
TTITLE10=Really knock me out
TTITLE11=Real mother for you
EXTD=
EXTT0=
EXTT1=
EXTT2=
EXTT3=
EXTT4=
EXTT5=
EXTT6=
EXTT7=
EXTT8=
EXTT9=
EXTT10=
EXTT11=
PLAYORDER=
